<svg xmlns="http://www.w3.org/2000/svg" width="21.711" height="21.711" viewBox="0 0 21.711 21.711">
  <path id="bold-interface-vectors-clock-time-watch-timer-alarm-schedule-calendar" d="M26.494,21.386a1.277,1.277,0,1,0-2.554,0v5.108a1.277,1.277,0,0,0,1.277,1.277h5.108a1.277,1.277,0,0,0,0-2.554H26.494Zm7.152-3.065a1.264,1.264,0,1,0-1.788,1.788,8.108,8.108,0,0,1,2.363,5.747,8.353,8.353,0,1,1-8.365-8.3,1.277,1.277,0,0,0,0-2.554A10.855,10.855,0,1,0,36.711,25.855a10.615,10.615,0,0,0-3.065-7.535Z" transform="translate(-15 -15)" fill="#fff"/>
</svg>
