<svg id="Group_20143" data-name="Group 20143" xmlns="http://www.w3.org/2000/svg" width="184" height="43.579" viewBox="0 0 184 43.579">
  <path id="Path_5056" data-name="Path 5056" d="M22.573,42.092c-1.636-.971-11.438-6.591-15.509-9.019a2.65,2.65,0,0,0-2.861.269c-1.138.909-.876,2.156-.891,3.315s0,10.511,0,10.511L3.3,50.4a4.79,4.79,0,0,0,1.3,3.195c1.509,1.427,15.866,9.18,18.9,10.783.255.135.56.04.56-.251V51.488a.393.393,0,0,0-.2-.345l-9.053-5.149a1.885,1.885,0,0,0-2.242.171,2.562,2.562,0,0,0,.251,3.618c.007,0,.011.011.018.015.683.367,5.864,3.374,6.962,3.963a.393.393,0,0,1,.2.345V57.11a.379.379,0,0,1-.367.393.394.394,0,0,1-.2-.051l-10.2-5.929A3.333,3.333,0,0,1,7.4,48.873c0-1.905.055-8.038.058-10.009a.377.377,0,0,1,.371-.389.39.39,0,0,1,.2.051L19.839,45.4a.388.388,0,0,1,.2.342v.644a.393.393,0,0,0,.2.345L23.5,48.51a.38.38,0,0,0,.52-.138.375.375,0,0,0,.051-.207V43.9c0-.622-.051-.938-1.5-1.8Z" transform="translate(-3.295 -20.856)" fill="#fff"/>
  <path id="Path_5057" data-name="Path 5057" d="M23.979,25.062,39.354,34.2a1.442,1.442,0,0,1,.7,1.247V54.215a1.422,1.422,0,0,0,1.4,1.44,1.447,1.447,0,0,0,.745-.2l1.923-1.325a1.441,1.441,0,0,0,.694-1.24V33.634a1.441,1.441,0,0,0-.691-1.235L26.644,22.214a1.4,1.4,0,0,0-1.316-.073l-1.229.378a1.451,1.451,0,0,0-.68,1.936,1.466,1.466,0,0,0,.556.614Z" transform="translate(-16.011 -14.005)" fill="#fff"/>
  <path id="Path_5058" data-name="Path 5058" d="M42.835,15.235,58.21,24.368a1.442,1.442,0,0,1,.7,1.247V44.388a1.416,1.416,0,0,0,2.14,1.24L62.975,44.3a1.449,1.449,0,0,0,.695-1.244V23.8a1.441,1.441,0,0,0-.691-1.233L45.5,12.374a1.4,1.4,0,0,0-1.316-.073l-1.229.378a1.456,1.456,0,0,0-.124,2.556Z" transform="translate(-28.014 -7.742)" fill="#fff"/>
  <g id="Group_19976" data-name="Group 19976" transform="translate(43.658 0)">
    <g id="Group_19975" data-name="Group 19975" transform="translate(0)">
      <path id="Path_5059" data-name="Path 5059" d="M128.491,15.406l.809,1.044a3.4,3.4,0,0,1-2.446,1.051,3.476,3.476,0,1,1,0-6.952,2.955,2.955,0,0,1,2.949,2.368l-4.375,2.577a1.863,1.863,0,0,0,1.427.691,2.281,2.281,0,0,0,1.636-.774Zm-3.639-1.376a2.76,2.76,0,0,0,.029.389l3.272-1.919a1.5,1.5,0,0,0-1.3-.629,2.148,2.148,0,0,0-2,2.157Z" transform="translate(-123.378 -6.709)" fill="#fff"/>
      <path id="Path_5060" data-name="Path 5060" d="M147.556,0a4.9,4.9,0,0,1,3.065,1.08l-.782,1.08a3.572,3.572,0,0,0-2.283-.84,3.981,3.981,0,0,0-3.894,4.061v.018a3.988,3.988,0,0,0,3.89,4.083h0a3.547,3.547,0,0,0,3.523-2.937H147.2V5.22h5.424v.2a5.139,5.139,0,0,1-4.9,5.372c-.058,0-.116,0-.174,0a5.344,5.344,0,0,1-5.3-5.392V5.393a5.35,5.35,0,0,1,5.294-5.4h.011Z" transform="translate(-135.387 0.01)" fill="#fff"/>
      <path id="Path_5061" data-name="Path 5061" d="M179.505,14.035a3.417,3.417,0,1,1-.98-2.454A3.417,3.417,0,0,1,179.505,14.035Zm-1.414,0a2.009,2.009,0,1,0-4.006,0,2.009,2.009,0,1,0,4.006,0Z" transform="translate(-154.75 -6.717)" fill="#fff"/>
      <path id="Path_5062" data-name="Path 5062" d="M191.38,10.87h1.534l1.65,3.715,1.65-3.715h1.534l-3.185,6.955Z" transform="translate(-166.657 -6.915)" fill="#fff"/>
      <path id="Path_5063" data-name="Path 5063" d="M142.1,52.564c0,5.388-3.647,10.2-10.51,10.2H126.6V42.37h4.985C138.619,42.37,142.1,47.18,142.1,52.564Zm-4.556,0c0-3.072-2.05-6.028-5.639-6.028h-.742V58.592h.74C135.489,58.592,137.54,55.64,137.54,52.564Z" transform="translate(-125.429 -26.962)" fill="#fff"/>
      <path id="Path_5064" data-name="Path 5064" d="M181.2,68.386l2.338,3.1a7.765,7.765,0,0,1-5.584,2.287,7.42,7.42,0,1,1,0-14.833c1.967,0,5.443.956,6.493,5.563l-8.089,4.926a3.015,3.015,0,0,0,1.427.291,5.021,5.021,0,0,0,3.417-1.334Zm-6.493-1.767,4.726-2.869A1.709,1.709,0,0,0,177.957,63a3.12,3.12,0,0,0-3.283,2.952A3.172,3.172,0,0,0,174.708,66.619Z" transform="translate(-153.253 -37.508)" fill="#fff"/>
      <path id="Path_5065" data-name="Path 5065" d="M231.7,65.417v7.878h-4.555V65.878c0-2.319-.825-2.781-1.825-2.781-.938,0-2.05.636-2.05,3.247v6.951h-4.556V65.878c0-2.319-.825-2.781-1.822-2.781-.938,0-2.05.636-2.05,3.247v6.951H210.29V59.389h4.556v1.393a4.188,4.188,0,0,1,3.53-1.854,4.28,4.28,0,0,1,3.676,1.885,5.593,5.593,0,0,1,4.3-1.885c2.876,0,5.35,2.149,5.35,6.493Z" transform="translate(-178.692 -37.499)" fill="#fff"/>
      <path id="Path_5066" data-name="Path 5066" d="M287.032,66.36a7.511,7.511,0,0,1-7.6,7.419h-.149a7.393,7.393,0,0,1-7.74-7.024c-.007-.131-.011-.262-.007-.393a7.355,7.355,0,0,1,7.747-7.417,7.541,7.541,0,0,1,7.745,7.337v.077Zm-4.555,0a3.245,3.245,0,1,0,0,.011V66.36Z" transform="translate(-217.671 -37.509)" fill="#fff"/>
      <path id="Path_5066-2" data-name="Path 5066" d="M287.032,66.36a7.511,7.511,0,0,1-7.6,7.419h-.149a7.393,7.393,0,0,1-7.74-7.024c-.007-.131-.011-.262-.007-.393a7.355,7.355,0,0,1,7.747-7.417,7.541,7.541,0,0,1,7.745,7.337v.077Zm-4.555,0a3.245,3.245,0,1,0,0,.011V66.36Z" transform="translate(-159.391 -37.509)" fill="#fff"/>
      <path id="Path_5067" data-name="Path 5067" d="M326.426,61.137l-2.992-4.4-1.109,1.325v3.072H317.77V39.81h4.555V51.979l3.647-4.752h5.469l-5.185,6.17,5.638,7.737-5.468.007Z" transform="translate(-247.096 -25.333)" fill="#fff"/>
      <path id="Path_5068" data-name="Path 5068" d="M367.284,58.94v5.1a4.336,4.336,0,0,0-2.508,0c-1.309.378-2.509,1.885-2.509,4.144v5.126H357.71V59.405h4.556v2.578c.942-2,2.45-2.865,5.014-3.039Z" transform="translate(-272.515 -37.508)" fill="#fff"/>
      <path id="Path_5069" data-name="Path 5069" d="M385.759,42.754a2.736,2.736,0,1,1,.785,1.966,2.736,2.736,0,0,1-.785-1.966Zm.454,4.637h4.556V61.3h-4.556Z" transform="translate(-290.367 -25.496)" fill="#fff"/>
      <path id="Path_5070" data-name="Path 5070" d="M405.429,54.626h-2.28V50.448h2.28V46.27l4.556-1.393v5.566h3.647v4.178h-3.647v9.732h-4.556V54.621Z" transform="translate(-301.434 -28.558)" fill="#fff"/>
      <path id="Path_5072" data-name="Path 5072" d="M487.857,68.9c0,2.694-2.079,4.868-6.322,4.868a8.843,8.843,0,0,1-5.981-2.145l1.821-3.475a6.716,6.716,0,0,0,3.5,1.619c1.622.175,2.422-.116,2.422-.665,0-.665-.767-.753-2.08-1.014-4.53-.9-4.985-3.043-4.985-4.637,0-2.348,1.967-4.519,5.784-4.519a9.433,9.433,0,0,1,4.726,1.447l-1.737,3.45a4.971,4.971,0,0,0-2.678-1.042c-.968-.087-1.538.145-1.538.52,0,.465.284.607,1.427.811C485.434,64.674,487.857,66.063,487.857,68.9Z" transform="translate(-347.515 -37.505)" fill="#fff"/>
    </g>
  </g>
</svg>
