<svg xmlns="http://www.w3.org/2000/svg" width="30.672" height="19.17" viewBox="0 0 30.672 19.17">
  <g id="Group_79" data-name="Group 79" transform="translate(0 0.001)">
    <path id="Path_27377" data-name="Path 27377" d="M251.12,251.82h-6.71l6.71,3.738Z" transform="translate(-239.138 -251.821)" fill="#050060"/>
    <path id="Path_27378" data-name="Path 27378" d="M451.86,251.82v3.738l6.71-3.738Z" transform="translate(-433.169 -251.821)" fill="#050060"/>
    <path id="Path_27379" data-name="Path 27379" d="M162.91,312.57v1.821h3.259Z" transform="translate(-162.91 -308.641)" fill="#050060"/>
    <path id="Path_27380" data-name="Path 27380" d="M162.91,459.27v1.821l3.259-1.821Z" transform="translate(-162.91 -445.852)" fill="#050060"/>
    <path id="Path_27381" data-name="Path 27381" d="M249.735,492.741v-3.834l-6.805,3.834Z" transform="translate(-237.754 -473.572)" fill="#050060"/>
    <path id="Path_27382" data-name="Path 27382" d="M451.86,492.741h6.805l-6.805-3.834Z" transform="translate(-433.169 -473.572)" fill="#050060"/>
    <path id="Path_27383" data-name="Path 27383" d="M589.966,314.4v-1.821l-3.259,1.821Z" transform="translate(-559.294 -308.648)" fill="#050060"/>
    <path id="Path_27384" data-name="Path 27384" d="M589.966,461.1v-1.821h-3.259Z" transform="translate(-559.294 -445.856)" fill="#050060"/>
    <path id="Path_27385" data-name="Path 27385" d="M174.512,257.575l-10.256-5.751h-1.342v1.725l7.189,4.026Z" transform="translate(-162.914 -251.824)" fill="#050060"/>
    <path id="Path_27386" data-name="Path 27386" d="M170.1,459.27,162.91,463.3v1.726h1.342l10.16-5.751Z" transform="translate(-162.91 -445.852)" fill="#050060"/>
    <path id="Path_27387" data-name="Path 27387" d="M459.27,459.27l10.16,5.751h1.342V463.3l-7.189-4.026Z" transform="translate(-440.1 -445.852)" fill="#050060"/>
    <path id="Path_27388" data-name="Path 27388" d="M468.046,251.82l-10.256,5.751H462.2l7.189-4.026V251.82Z" transform="translate(-438.716 -251.821)" fill="#050060"/>
    <path id="Path_27389" data-name="Path 27389" d="M180.163,251.82h-3.834v7.668H162.91v3.834h13.419v7.668h3.834v-7.668h13.419v-3.834H180.163Z" transform="translate(-162.91 -251.821)" fill="#d10c0c"/>
  </g>
</svg>
