<svg xmlns="http://www.w3.org/2000/svg" width="120" height="108.843" viewBox="0 0 120 108.843">
  <g id="Group_66" data-name="Group 66" transform="translate(-483.002 -220)">
    <g id="Group_55" data-name="Group 55" transform="translate(522.988 220)">
      <path id="Path_27287" data-name="Path 27287" d="M38.136,16.013A18.37,18.37,0,0,0,19.919,0h0A18.37,18.37,0,0,0,1.7,16.013,6.1,6.1,0,0,0,0,20.251H0A6.128,6.128,0,0,0,4.931,26.26c.037.092.074.184.112.275a16.153,16.153,0,0,0,29.751,0q.058-.137.112-.275a6.089,6.089,0,0,0,1.986-.773A17.31,17.31,0,0,1,21.817,39.33a1.974,1.974,0,0,0-1.9-1.435h0a1.973,1.973,0,0,0-1.973,1.973h0a1.973,1.973,0,0,0,1.973,1.973h0a1.973,1.973,0,0,0,1.9-1.437A18.374,18.374,0,0,0,38.135,24.488a6.106,6.106,0,0,0,1.7-4.237h0a6.106,6.106,0,0,0-1.7-4.237ZM28.711,29.043a12.433,12.433,0,1,1,3.642-8.792,12.352,12.352,0,0,1-3.642,8.792Zm6.2-14.8c-.037-.092-.074-.184-.112-.275a16.153,16.153,0,0,0-29.751,0q-.058.137-.112.275a6.089,6.089,0,0,0-1.986.773A17.3,17.3,0,0,1,19.919,1.067h0A17.3,17.3,0,0,1,36.893,15.013,6.089,6.089,0,0,0,34.907,14.241Z" fill="#050060"/>
      <circle id="Ellipse_1" data-name="Ellipse 1" cx="2.791" cy="2.791" r="2.791" transform="translate(11.609 16.09)" fill="#050060"/>
      <circle id="Ellipse_2" data-name="Ellipse 2" cx="2.791" cy="2.791" r="2.791" transform="translate(21.49 18.881) rotate(-45)" fill="#050060"/>
    </g>
    <g id="Group_65" data-name="Group 65" transform="translate(511.563 276.777)">
      <path id="Path_27288" data-name="Path 27288" d="M724.418,255.361v.284c0,3.97,2.646,6.521,6.112,6.521a6.03,6.03,0,0,0,5.387-3.213l.126-.032.536.347a6.713,6.713,0,0,1-6.112,3.623c-4.064,0-6.837-2.993-6.837-7.435s2.772-7.435,6.679-7.435,6.459,2.772,6.459,6.994a1.4,1.4,0,0,1-.032.347Zm.031-.693h11.5c-.094-3.655-2.3-5.923-5.639-5.923S724.67,251.107,724.449,254.668Z" transform="translate(-723.63 -239.388)" fill="#050060"/>
      <path id="Path_27289" data-name="Path 27289" d="M941.12,122.771c0-6.711,4.883-11.751,11.4-11.751,4.474,0,7.813,1.985,10.145,6.049l-.567.41-.189-.032a10.1,10.1,0,0,0-9.389-5.608c-5.986,0-10.523,4.726-10.523,10.932s4.6,10.932,10.46,10.932a10.611,10.611,0,0,0,9.641-6.459V123.59h-7.845V122.8h8.632v11.121h-.819V132.38c0-1.04,0-2.52.063-3.466l-.063-.032c-2.205,3.434-5.513,5.639-9.578,5.639C946.035,134.523,941.12,129.513,941.12,122.771Z" transform="translate(-927.416 -111.02)" fill="#050060"/>
      <path id="Path_27290" data-name="Path 27290" d="M1318.12,255.455a7.357,7.357,0,1,1,7.341,7.435A7.232,7.232,0,0,1,1318.12,255.455Zm13.894,0a6.554,6.554,0,1,0-13.106,0,6.555,6.555,0,1,0,13.106,0Z" transform="translate(-1280.66 -239.388)" fill="#050060"/>
      <path id="Path_27291" data-name="Path 27291" d="M1540.442,271.7l-6.332-14.177h.882l5.482,12.539h.063l5.45-12.539h.882l-6.332,14.177Z" transform="translate(-1483.041 -248.29)" fill="#050060"/>
    </g>
    <g id="Group_64" data-name="Group 64" transform="translate(483.002 305.34)">
      <path id="Path_27292" data-name="Path 27292" d="M1825.61,129.765l1.323-.882.347.063c1.481,2.835,3.277,4,5.828,4,2.9,0,4.946-2.016,4.946-4.411s-1.166-3.749-5.7-5.734c-4.442-1.953-5.955-3.718-5.955-6.522,0-3.024,2.457-5.261,6.332-5.261a6.659,6.659,0,0,1,6.27,3.56l-1.26.851-.346-.063a5.021,5.021,0,0,0-4.726-2.8c-2.677,0-4.442,1.607-4.442,3.655s1.071,3.119,5.356,5.135c4.978,2.3,6.3,4.1,6.3,7.183,0,3.34-2.835,5.986-6.742,5.986C1829.8,134.523,1827.406,133.2,1825.61,129.765Z" transform="translate(-1825.61 -111.02)" fill="#050060"/>
      <path id="Path_27293" data-name="Path 27293" d="M2078.6,134.1V120.52h1.764v13.421c0,5.293,2.237,7.813,6.837,7.813s6.868-2.52,6.868-7.845V120.52h1.764v13.547c0,6.08-2.961,9.357-8.632,9.357S2078.6,140.274,2078.6,134.1Z" transform="translate(-2062.659 -119.921)" fill="#050060"/>
      <path id="Path_27294" data-name="Path 27294" d="M2403.6,142.826V120.52h5.7c4.915,0,7.435,2.237,7.435,6.4s-2.615,6.4-7.435,6.4h-3.938v9.514Zm1.764-11.121h3.434c4.284,0,6.143-1.575,6.143-4.789s-1.921-4.789-6.049-4.789h-3.529Z" transform="translate(-2367.181 -119.921)" fill="#050060"/>
      <path id="Path_27295" data-name="Path 27295" d="M2633.1,142.826V120.52h5.7c4.915,0,7.435,2.237,7.435,6.4s-2.615,6.4-7.435,6.4h-3.938v9.514Zm1.764-11.121h3.434c4.285,0,6.144-1.575,6.144-4.789s-1.922-4.789-6.049-4.789h-3.529Z" transform="translate(-2582.221 -119.921)" fill="#050060"/>
      <path id="Path_27296" data-name="Path 27296" d="M2839.589,122.771a11.8,11.8,0,1,1,11.814,11.751A11.4,11.4,0,0,1,2839.589,122.771Zm21.739,0a9.941,9.941,0,1,0-9.924,10.082A9.71,9.71,0,0,0,2861.328,122.771Z" transform="translate(-2775.699 -111.02)" fill="#050060"/>
      <path id="Path_27297" data-name="Path 27297" d="M3261.307,142.479l-.158.347h-1.764l-6.963-9.861h-4.568v9.861h-1.765V120.52h5.829c4.821,0,7.373,2.111,7.373,6.269a5.711,5.711,0,0,1-5.01,5.923Zm-13.453-11.09h3.907c3.97,0,5.766-1.638,5.766-4.6,0-3.245-1.954-4.663-6.018-4.663h-3.654Z" transform="translate(-3156.585 -119.921)" fill="#050060"/>
      <path id="Path_27298" data-name="Path 27298" d="M3458.488,122.158h-7.908V120.52h17.611v1.638h-7.939v20.667h-1.764Z" transform="translate(-3348.19 -119.921)" fill="#050060"/>
    </g>
  </g>
</svg>
