<svg xmlns="http://www.w3.org/2000/svg" width="36.063" height="37.877" viewBox="0 0 36.063 37.877">
  <g id="Group_113" data-name="Group 113" transform="translate(-519.201 -220)">
    <g id="Group_55" data-name="Group 55" transform="translate(519.201 220)">
      <path id="Path_27287" data-name="Path 27287" d="M34.523,14.5A16.629,16.629,0,0,0,18.032,0h0A16.63,16.63,0,0,0,1.541,14.5,5.526,5.526,0,0,0,0,18.332H0a5.547,5.547,0,0,0,4.464,5.44c.034.083.067.167.1.249a14.623,14.623,0,0,0,26.932,0q.052-.124.1-.249a5.512,5.512,0,0,0,1.8-.7A15.67,15.67,0,0,1,19.75,35.6a1.787,1.787,0,0,0-1.718-1.3h0a1.786,1.786,0,0,0-1.786,1.786h0a1.786,1.786,0,0,0,1.786,1.786h0a1.786,1.786,0,0,0,1.719-1.3A16.634,16.634,0,0,0,34.523,22.168a5.527,5.527,0,0,0,1.541-3.836h0A5.527,5.527,0,0,0,34.523,14.5ZM25.991,26.291a11.255,11.255,0,1,1,3.3-7.959,11.182,11.182,0,0,1-3.3,7.959Zm5.609-13.4c-.034-.083-.067-.167-.1-.249a14.623,14.623,0,0,0-26.932,0q-.052.124-.1.249a5.512,5.512,0,0,0-1.8.7A15.664,15.664,0,0,1,18.032.966h0A15.665,15.665,0,0,1,33.4,13.591,5.512,5.512,0,0,0,31.6,12.892Z" fill="#fff"/>
      <circle id="Ellipse_1" data-name="Ellipse 1" cx="2.527" cy="2.527" r="2.527" transform="translate(10.509 14.565)" fill="#fff"/>
      <circle id="Ellipse_2" data-name="Ellipse 2" cx="2.527" cy="2.527" r="2.527" transform="translate(19.454 17.093) rotate(-45)" fill="#fff"/>
    </g>
  </g>
</svg>
