<svg xmlns="http://www.w3.org/2000/svg" width="41.901" height="41.865" viewBox="0 0 41.901 41.865">
  <g id="Page-1" transform="translate(-0.4 -0.5)">
    <g id="add" transform="translate(0.4 0.5)">
      <path id="Shape" d="M21.368.5A20.932,20.932,0,1,0,42.3,21.432,20.978,20.978,0,0,0,21.368.5Zm0,38.941A18.009,18.009,0,1,1,39.377,21.432,18.036,18.036,0,0,1,21.368,39.441Z" transform="translate(-0.4 -0.5)" fill="#050060"/>
      <path id="Shape-2" data-name="Shape" d="M48.452,36.772H40.3V28.58a1.48,1.48,0,1,0-2.959,0v8.156H29.18a1.48,1.48,0,1,0,0,2.959h8.156v8.156a1.48,1.48,0,0,0,2.959,0V39.7h8.156a1.464,1.464,0,0,0,1.48-1.48A1.434,1.434,0,0,0,48.452,36.772Z" transform="translate(-17.847 -17.5)" fill="#050060"/>
    </g>
  </g>
</svg>
