<svg id="office-alternatives-printer-ink" xmlns="http://www.w3.org/2000/svg" width="14.201" height="13.186" viewBox="0 0 14.201 13.186">
  <path id="Path_27451" data-name="Path 27451" d="M193.271,197.352h-1.714l-.877-1.75a.507.507,0,0,0-.451-.279h-7.1a.507.507,0,0,0-.451.279l-.877,1.75h-1.714a.507.507,0,0,0-.507.507v7.607a.507.507,0,0,0,.507.507h3.043V208a.507.507,0,0,0,.507.507h6.086a.507.507,0,0,0,.507-.507v-2.029h3.043a.507.507,0,0,0,.507-.507V197.86a.507.507,0,0,0-.507-.507Zm-9.829-1.014h6.471l.507,1.014h-7.486Zm5.772,11.157h-5.072v-4.057h5.072Zm3.55-2.536h-2.536v-1.521h.507a.507.507,0,1,0,0-1.014h-8.114a.507.507,0,1,0,0,1.014h.507v1.521h-2.536v-6.593h12.172Z" transform="translate(-179.578 -195.324)" fill="#050060"/>
  <path id="Path_27452" data-name="Path 27452" d="M340.573,337.02H337.53a.507.507,0,0,0,0,1.014h3.043a.507.507,0,1,0,0-1.014Z" transform="translate(-331.951 -332.456)" fill="#050060"/>
</svg>
