<svg xmlns="http://www.w3.org/2000/svg" width="191.106" height="134.396" viewBox="0 0 191.106 134.396">
  <g id="Group_132" data-name="Group 132" transform="translate(-350.735 -32)">
    <g id="Group_117" data-name="Group 117" transform="translate(415 32)">
      <path id="Path_27287" data-name="Path 27287" d="M58.475,24.554A28.167,28.167,0,0,0,30.543,0h0A28.168,28.168,0,0,0,2.61,24.554,9.36,9.36,0,0,0,0,31.051H0a9.4,9.4,0,0,0,7.561,9.214c.057.141.113.282.172.422a24.768,24.768,0,0,0,45.618,0q.088-.21.172-.422a9.336,9.336,0,0,0,3.045-1.184A26.542,26.542,0,0,1,33.452,60.306a3.026,3.026,0,0,0-2.91-2.2h0a3.025,3.025,0,0,0-3.025,3.025h0a3.025,3.025,0,0,0,3.025,3.025h0a3.026,3.026,0,0,0,2.911-2.2,28.174,28.174,0,0,0,25.021-24.4,9.362,9.362,0,0,0,2.61-6.5h0a9.362,9.362,0,0,0-2.61-6.5ZM44.023,44.532a19.063,19.063,0,1,1,5.584-13.481,18.94,18.94,0,0,1-5.584,13.481Zm9.5-22.7c-.057-.141-.113-.282-.172-.422a24.768,24.768,0,0,0-45.618,0q-.088.21-.172.422A9.336,9.336,0,0,0,4.517,23.02,26.532,26.532,0,0,1,30.543,1.636h0A26.533,26.533,0,0,1,56.569,23.02,9.336,9.336,0,0,0,53.523,21.836Z" fill="#fff"/>
      <circle id="Ellipse_1" data-name="Ellipse 1" cx="4.28" cy="4.28" r="4.28" transform="translate(17.8 24.671)" fill="#fff"/>
      <circle id="Ellipse_2" data-name="Ellipse 2" cx="4.28" cy="4.28" r="4.28" transform="translate(32.952 28.951) rotate(-45)" fill="#fff"/>
    </g>
    <g id="Group_131" data-name="Group 131">
      <path id="Path_27470" data-name="Path 27470" d="M-81.936-11.088H-77.9v-1.584h-5.76V0h1.728Zm9.648,2.88a4.179,4.179,0,0,0-4.176,4.176V4.32h1.728V-.864A3.552,3.552,0,0,0-72.288.144a4.179,4.179,0,0,0,4.176-4.176A4.179,4.179,0,0,0-72.288-8.208Zm0,6.768a2.554,2.554,0,0,1-2.448-2.592,2.554,2.554,0,0,1,2.448-2.592A2.554,2.554,0,0,1-69.84-4.032,2.554,2.554,0,0,1-72.288-1.44ZM-59.76-8.064v1.008a3.377,3.377,0,0,0-2.592-1.152,4.1,4.1,0,0,0-4.032,4.176A4.1,4.1,0,0,0-62.352.144,3.377,3.377,0,0,0-59.76-1.008V0h1.728V-8.064ZM-62.208-1.44a2.507,2.507,0,0,1-2.448-2.592,2.507,2.507,0,0,1,2.448-2.592A2.507,2.507,0,0,1-59.76-4.032,2.507,2.507,0,0,1-62.208-1.44Zm6.192-2.592c0,2.3,1.818,3.924,4.32,4.176V4.32h1.728V.144c2.5-.252,4.32-1.872,4.32-4.176,0-2.682-2.25-4.212-5.31-4.212a4.739,4.739,0,0,0-.738.054v6.75a2.652,2.652,0,0,1-2.592-2.592,2.528,2.528,0,0,1,1.872-2.484l-.306-1.512A4.133,4.133,0,0,0-56.016-4.032Zm6.048,2.592V-6.624a2.628,2.628,0,0,1,2.592,2.592A2.628,2.628,0,0,1-49.968-1.44Zm9.576,0c-.954.054-1.8-.216-1.8-.936,0-.648,1.224-.936,2.3-.936v-1.44c-1.242,0-2.16-.486-2.16-.99,0-.576.5-.882,1.4-.882a2.9,2.9,0,0,1,1.908.72l.792-1.26a4.374,4.374,0,0,0-2.934-1.044c-1.638,0-2.9.756-2.9,2.232a1.883,1.883,0,0,0,1.242,1.8A2.048,2.048,0,0,0-43.92-2.268c0,1.674,1.476,2.412,3.2,2.412A4.017,4.017,0,0,0-37.872-.882l-.72-1.26A2.964,2.964,0,0,1-40.392-1.44Zm4.824-7.776h1.152l.576-2.592h-1.728ZM-35.712,0h1.728V-8.064h-1.728Zm7.92-8.208a4.179,4.179,0,0,0-4.176,4.176A4.179,4.179,0,0,0-27.792.144a4.179,4.179,0,0,0,4.176-4.176A4.179,4.179,0,0,0-27.792-8.208Zm0,6.768A2.554,2.554,0,0,1-30.24-4.032a2.554,2.554,0,0,1,2.448-2.592,2.554,2.554,0,0,1,2.448,2.592A2.554,2.554,0,0,1-27.792-1.44Zm19.8-11.232-3.24,5.814-3.24-5.814h-1.944L-12.1-5.13V0h1.728V-5.13l4.32-7.542ZM3.168-6.48V-8.064h-8.64V-6.48H-4.32V0h1.728V-6.48H.288V0H2.016V-6.48ZM8.784-8.208A4.179,4.179,0,0,0,4.608-4.032,4.179,4.179,0,0,0,8.784.144,4.179,4.179,0,0,0,12.96-4.032,4.179,4.179,0,0,0,8.784-8.208Zm0,6.768A2.554,2.554,0,0,1,6.336-4.032,2.554,2.554,0,0,1,8.784-6.624a2.554,2.554,0,0,1,2.448,2.592A2.554,2.554,0,0,1,8.784-1.44ZM23.9-8.064c-1.98,0-3.186-.036-4.572-.126a4.068,4.068,0,0,0-.468-.018,4.179,4.179,0,0,0-4.176,4.176A4.179,4.179,0,0,0,18.864.144,4.179,4.179,0,0,0,23.04-4.032,3.555,3.555,0,0,0,22.1-6.48h1.8ZM18.864-1.44a2.554,2.554,0,0,1-2.448-2.592,2.554,2.554,0,0,1,2.448-2.592,2.554,2.554,0,0,1,2.448,2.592A2.554,2.554,0,0,1,18.864-1.44Zm6.768-6.624V-6.48h2.3V0h1.728V-6.48h2.3V-8.064ZM37.008-9.216H38.16l.576-2.592H37.008Zm1.26,1.008A2.527,2.527,0,0,0,36-7.056V-8.064H34.272V0H36V-4.176a2.183,2.183,0,0,1,1.944-2.448c1.332,0,1.8.846,1.8,2.376V4.32h1.728V-4.248C41.472-6.8,40.32-8.208,38.268-8.208Zm9.828,0A4.179,4.179,0,0,0,43.92-4.032V4.32h1.728V-.864A3.552,3.552,0,0,0,48.1.144a4.179,4.179,0,0,0,4.176-4.176A4.179,4.179,0,0,0,48.1-8.208Zm0,6.768a2.554,2.554,0,0,1-2.448-2.592A2.554,2.554,0,0,1,48.1-6.624a2.554,2.554,0,0,1,2.448,2.592A2.554,2.554,0,0,1,48.1-1.44ZM54.288,0h1.728V-8.064H54.288ZM65.664,1.152c0-1.908-.954-2.592-3.168-2.592a2.246,2.246,0,0,1-2.3-2.16c0-1.656,1.44-2.3,2.88-2.3v-1.44c-1.134,0-2.592-.648-2.592-2.016a1.883,1.883,0,0,1,2.052-1.872,2.744,2.744,0,0,1,2.232,1.224l.9-1.224a3.894,3.894,0,0,0-3.186-1.584c-1.98,0-3.726,1.1-3.726,3.456a2.917,2.917,0,0,0,1.674,2.628A3.1,3.1,0,0,0,58.464-3.6,3.756,3.756,0,0,0,62.478.144c1.044,0,1.458.108,1.458.918v.666h1.728Zm6.156-9.36a2.527,2.527,0,0,0-2.268,1.152V-8.064H67.824V0h1.728V-4.176A2.183,2.183,0,0,1,71.5-6.624c1.332,0,1.8.846,1.8,2.376V4.32h1.728V-4.248C75.024-6.8,73.872-8.208,71.82-8.208Zm9.4,6.768a2.554,2.554,0,0,1-2.448-2.592,2.554,2.554,0,0,1,2.448-2.592,2.53,2.53,0,0,1,1.8.72l.936-1.3a4.16,4.16,0,0,0-2.736-1.008A4.179,4.179,0,0,0,77.04-4.032,4.179,4.179,0,0,0,81.216.144c.7,0,1.008.324,1.008.918v.666h1.728V1.152C83.952-.792,82.854-1.44,81.216-1.44ZM-54.864,7.328h-7.488V20h1.728V8.912h4.032V20h1.728ZM-44.64,20-49.716,7.328h-1.872l1.818,4.608L-52.992,20h1.89l2.25-5.9L-46.53,20Zm6.012-8.208A2.527,2.527,0,0,0-40.9,12.944V11.936h-1.728V20H-40.9V15.824a2.183,2.183,0,0,1,1.944-2.448c1.332,0,1.8.846,1.8,2.376V24.32h1.728V15.752C-35.424,13.2-36.576,11.792-38.628,11.792Zm9.828,0a4.179,4.179,0,0,0-4.176,4.176V24.32h1.728V19.136A3.552,3.552,0,0,0-28.8,20.144a4.179,4.179,0,0,0,4.176-4.176A4.179,4.179,0,0,0-28.8,11.792Zm0,6.768a2.554,2.554,0,0,1-2.448-2.592A2.554,2.554,0,0,1-28.8,13.376a2.554,2.554,0,0,1,2.448,2.592A2.554,2.554,0,0,1-28.8,18.56Zm10.08-6.768A4.179,4.179,0,0,0-22.9,15.968a4.179,4.179,0,0,0,4.176,4.176,4.179,4.179,0,0,0,4.176-4.176A4.179,4.179,0,0,0-18.72,11.792Zm0,6.768a2.554,2.554,0,0,1-2.448-2.592,2.554,2.554,0,0,1,2.448-2.592,2.554,2.554,0,0,1,2.448,2.592A2.554,2.554,0,0,1-18.72,18.56Zm5.9-2.592c0,2.3,1.818,3.924,4.32,4.176V24.32h1.728V20.144c2.5-.252,4.32-1.872,4.32-4.176,0-2.682-2.25-4.212-5.31-4.212a4.739,4.739,0,0,0-.738.054v6.75a2.652,2.652,0,0,1-2.592-2.592,2.528,2.528,0,0,1,1.872-2.484l-.306-1.512A4.133,4.133,0,0,0-12.816,15.968Zm6.048,2.592V13.376a2.628,2.628,0,0,1,2.592,2.592A2.628,2.628,0,0,1-6.768,18.56ZM3.456,11.792a4.176,4.176,0,1,0,4.176,4.176A4.179,4.179,0,0,0,3.456,11.792Zm0,6.768a2.6,2.6,0,0,1,0-5.184,2.6,2.6,0,0,1,0,5.184Zm10.368-6.768a4.179,4.179,0,0,0-4.176,4.176V24.32h1.728V19.136a3.552,3.552,0,0,0,2.448,1.008,4.176,4.176,0,1,0,0-8.352Zm0,6.768a2.6,2.6,0,0,1,0-5.184,2.6,2.6,0,0,1,0,5.184ZM20.016,20h1.728V11.936H20.016Zm10.368-8.064v1.008a3.377,3.377,0,0,0-2.592-1.152,4.179,4.179,0,0,0,0,8.352,3.377,3.377,0,0,0,2.592-1.152V20h1.728V11.936ZM27.936,18.56a2.507,2.507,0,0,1-2.448-2.592,2.452,2.452,0,1,1,4.9,0A2.507,2.507,0,0,1,27.936,18.56ZM42.048,20l-3.726-4.518,3.438-3.546H39.6l-3.024,3.24v-3.24H34.848V20h1.728V17.282l.63-.648L39.888,20Zm6.192-9.216h1.152l.576-2.592H48.24Zm5.166,1.152-1.62.432A7.217,7.217,0,0,1,52.7,15.86c0,1.71-.666,2.556-1.584,2.556-.63,0-1.3-.342-1.3-1.692V13.088H48.1v3.636c0,1.35-.666,1.692-1.3,1.692-.918,0-1.584-.846-1.584-2.556a7.217,7.217,0,0,1,.918-3.492l-1.62-.432a8.174,8.174,0,0,0-1.026,3.96c0,2.988,1.422,4.248,3.312,4.248a2.466,2.466,0,0,0,2.16-1.1,2.466,2.466,0,0,0,2.16,1.1c1.854,0,3.312-1.26,3.312-4.248A8.174,8.174,0,0,0,53.406,11.936Zm6.21,8.352L63.5,11.936H61.632L59.616,16.4,57.6,11.936H55.728ZM-92.2,28.912h4.428V27.328h-7.488l3.96,6.336L-95.265,40h7.488V38.416H-92.2l2.988-4.752Zm12.492,3.024v4.212c0,1.638-.81,2.412-1.872,2.412s-1.872-.774-1.872-2.412V31.936h-1.728v4.032c0,2.7,1.386,4.176,3.6,4.176s3.6-1.476,3.6-4.176V31.936Zm12.672,0c-1.98,0-3.186-.036-4.572-.126a4.068,4.068,0,0,0-.468-.018,4.179,4.179,0,0,0-4.176,4.176,4.179,4.179,0,0,0,4.176,4.176A4.179,4.179,0,0,0-67.9,35.968a3.555,3.555,0,0,0-.936-2.448h1.8Zm-5.04,6.624a2.554,2.554,0,0,1-2.448-2.592,2.554,2.554,0,0,1,2.448-2.592,2.554,2.554,0,0,1,2.448,2.592A2.554,2.554,0,0,1-72.081,38.56Zm6.768-6.624V33.52h2.3V40h1.728V33.52h2.3V31.936Zm12.636-.144a2.527,2.527,0,0,0-2.268,1.152V31.936h-1.728V40h1.728V35.824A2.183,2.183,0,0,1-53,33.376c1.332,0,1.8.846,1.8,2.376V44.32h1.728V35.752C-49.473,33.2-50.625,31.792-52.677,31.792Zm11.412.144v4.032c0,1.62-.972,2.592-2.016,2.592s-2.016-.972-2.016-2.592V31.936h-1.728V44.32H-45.3V38.992a2.248,2.248,0,0,0,2.016,1.152,2.248,2.248,0,0,0,2.016-1.152V40h1.728V31.936Zm7.632-1.152h1.152l.576-2.592h-1.728Zm2.736,1.152v1.008a3.377,3.377,0,0,0-2.592-1.152,4.1,4.1,0,0,0-4.032,4.176,4.1,4.1,0,0,0,4.032,4.176A3.377,3.377,0,0,0-30.9,38.992V40h1.728V31.936Zm-2.448,6.624a2.507,2.507,0,0,1-2.448-2.592,2.507,2.507,0,0,1,2.448-2.592A2.507,2.507,0,0,1-30.9,35.968,2.507,2.507,0,0,1-33.345,38.56Zm6.48-6.624V33.52h2.3V40h1.728V33.52h2.3V31.936Zm18.27,0-1.62.432A7.372,7.372,0,0,1-9.3,35.9c0,1.854-.666,2.664-1.584,2.664-.63,0-1.3-.486-1.3-1.836V33.088h-1.728v3.636c0,1.35-.666,1.836-1.3,1.836-.918,0-1.584-.81-1.584-2.664a7.372,7.372,0,0,1,.918-3.528l-1.62-.432a8.174,8.174,0,0,0-1.026,3.96c0,2.988,1.422,4.248,3.312,4.248a2.466,2.466,0,0,0,2.16-1.1,2.466,2.466,0,0,0,2.16,1.1c1.854,0,3.312-1.26,3.312-4.248A8.174,8.174,0,0,0-8.6,31.936Zm6.21,8.352L1.5,31.936H-.369L-2.385,36.4-4.4,31.936H-6.273Zm20.322-5.976h-4.05V35.9h1.134a2.093,2.093,0,0,1-2,2.664,2.331,2.331,0,0,1-2.3-2.376,2.384,2.384,0,0,1,2.592-2.448V32.152c-1.692-.144-2.016-1.242-2.016-1.764a1.734,1.734,0,0,1,1.926-1.62,2.414,2.414,0,0,1,1.818.882l1.008-1.242a3.883,3.883,0,0,0-2.88-1.224,3.336,3.336,0,0,0-3.6,3.168,2.974,2.974,0,0,0,1.08,2.448,4.019,4.019,0,0,0-1.656,3.312,3.855,3.855,0,0,0,4.032,4.032,3.664,3.664,0,0,0,3.8-4.248h1.116ZM25.425,40h1.944l2.808-5.04L32.985,40h1.944l-3.744-6.588,3.456-6.084H32.715L30.177,31.9l-2.538-4.572H25.713l3.456,6.084Zm15.7-8.208a4.179,4.179,0,0,0-4.176,4.176V44.32h1.728V39.136a3.552,3.552,0,0,0,2.448,1.008,4.176,4.176,0,0,0,0-8.352Zm0,6.768a2.6,2.6,0,1,1,2.448-2.592A2.554,2.554,0,0,1,41.121,38.56Zm10.188-6.768a2.527,2.527,0,0,0-2.268,1.152V31.936H47.313V40h1.728V35.824a2.183,2.183,0,0,1,1.944-2.448c1.332,0,1.8.846,1.8,2.376V44.32h1.728V35.752C54.513,33.2,53.361,31.792,51.309,31.792Zm14.436.144c-1.98,0-3.186-.036-4.572-.126a4.068,4.068,0,0,0-.468-.018,4.176,4.176,0,1,0,4.176,4.176,3.555,3.555,0,0,0-.936-2.448h1.8ZM60.7,38.56a2.6,2.6,0,1,1,2.448-2.592A2.554,2.554,0,0,1,60.7,38.56Zm6.768-6.624V33.52h2.3V40H71.5V33.52h2.3V31.936Zm13.1-1.152h1.152l.576-2.592H80.577Zm5.166,1.152-1.62.432a7.217,7.217,0,0,1,.918,3.492c0,1.71-.666,2.556-1.584,2.556-.63,0-1.3-.342-1.3-1.692V33.088H80.433v3.636c0,1.35-.666,1.692-1.3,1.692-.918,0-1.584-.846-1.584-2.556a7.217,7.217,0,0,1,.918-3.492l-1.62-.432a8.174,8.174,0,0,0-1.026,3.96c0,2.988,1.422,4.248,3.312,4.248a2.466,2.466,0,0,0,2.16-1.1,2.466,2.466,0,0,0,2.16,1.1c1.854,0,3.312-1.26,3.312-4.248A8.174,8.174,0,0,0,85.743,31.936Zm6.21,8.352,3.888-8.352H93.969L91.953,36.4l-2.016-4.464H88.065Z" transform="translate(446 122.076)" fill="#fff"/>
    </g>
  </g>
</svg>
