<svg xmlns="http://www.w3.org/2000/svg" width="184" height="166.891" viewBox="0 0 184 166.891">
  <g id="Group_66" data-name="Group 66" transform="translate(-483.002 -220)">
    <g id="Group_55" data-name="Group 55" transform="translate(544.314 220)">
      <path id="Path_27287" data-name="Path 27287" d="M58.475,24.554A28.167,28.167,0,0,0,30.543,0h0A28.168,28.168,0,0,0,2.61,24.554,9.36,9.36,0,0,0,0,31.051H0a9.4,9.4,0,0,0,7.561,9.214c.057.141.113.282.172.422a24.768,24.768,0,0,0,45.618,0q.088-.21.172-.422a9.336,9.336,0,0,0,3.045-1.184A26.542,26.542,0,0,1,33.452,60.306a3.026,3.026,0,0,0-2.91-2.2h0a3.025,3.025,0,0,0-3.025,3.025h0a3.025,3.025,0,0,0,3.025,3.025h0a3.026,3.026,0,0,0,2.911-2.2,28.174,28.174,0,0,0,25.021-24.4,9.362,9.362,0,0,0,2.61-6.5h0a9.362,9.362,0,0,0-2.61-6.5ZM44.023,44.532a19.063,19.063,0,1,1,5.584-13.481,18.94,18.94,0,0,1-5.584,13.481Zm9.5-22.7c-.057-.141-.113-.282-.172-.422a24.768,24.768,0,0,0-45.618,0q-.088.21-.172.422A9.336,9.336,0,0,0,4.517,23.02,26.532,26.532,0,0,1,30.543,1.636h0A26.533,26.533,0,0,1,56.569,23.02,9.336,9.336,0,0,0,53.523,21.836Z" fill="#fff"/>
      <circle id="Ellipse_1" data-name="Ellipse 1" cx="4.28" cy="4.28" r="4.28" transform="translate(17.8 24.671)" fill="#fff"/>
      <circle id="Ellipse_2" data-name="Ellipse 2" cx="4.28" cy="4.28" r="4.28" transform="translate(32.952 28.951) rotate(-45)" fill="#fff"/>
    </g>
    <g id="Group_65" data-name="Group 65" transform="translate(526.794 307.058)">
      <path id="Path_27288" data-name="Path 27288" d="M724.838,259.276v.435c0,6.087,4.058,10,9.371,10a9.245,9.245,0,0,0,8.26-4.927l.193-.048.821.531a10.293,10.293,0,0,1-9.372,5.555c-6.232,0-10.483-4.589-10.483-11.4s4.251-11.4,10.241-11.4,9.9,4.251,9.9,10.724a2.151,2.151,0,0,1-.049.531Zm.048-1.063h17.632c-.145-5.6-3.526-9.082-8.647-9.082S725.224,252.754,724.886,258.213Z" transform="translate(-723.63 -234.785)" fill="#fff"/>
      <path id="Path_27289" data-name="Path 27289" d="M941.12,129.039c0-10.289,7.488-18.019,17.487-18.019,6.86,0,11.98,3.043,15.555,9.275l-.87.628-.29-.048c-3.092-5.555-7.777-8.6-14.4-8.6-9.178,0-16.135,7.246-16.135,16.763S949.525,145.8,958.51,145.8c6.57,0,12.029-3.961,14.782-9.9v-5.6H961.264v-1.208H974.5v17.052h-1.256v-2.367c0-1.594,0-3.865.1-5.314l-.1-.048c-3.382,5.266-8.454,8.647-14.685,8.647C948.656,147.057,941.12,139.376,941.12,129.039Z" transform="translate(-920.107 -111.02)" fill="#fff"/>
      <path id="Path_27290" data-name="Path 27290" d="M1318.12,259.42a11.281,11.281,0,1,1,11.256,11.4A11.09,11.09,0,0,1,1318.12,259.42Zm21.3,0a10.05,10.05,0,1,0-20.1,0,10.051,10.051,0,1,0,20.1,0Z" transform="translate(-1260.682 -234.785)" fill="#fff"/>
      <path id="Path_27291" data-name="Path 27291" d="M1543.819,279.258l-9.71-21.738h1.353l8.405,19.226h.1l8.357-19.226h1.353l-9.71,21.738Z" transform="translate(-1455.805 -243.367)" fill="#fff"/>
    </g>
    <g id="Group_64" data-name="Group 64" transform="translate(483.002 350.854)">
      <path id="Path_27292" data-name="Path 27292" d="M1825.61,139.763l2.029-1.353.531.1c2.271,4.348,5.024,6.135,8.937,6.135,4.444,0,7.584-3.092,7.584-6.763s-1.787-5.749-8.743-8.792c-6.812-3-9.13-5.7-9.13-10,0-4.637,3.768-8.067,9.709-8.067,4.493,0,7.681,1.932,9.613,5.459l-1.932,1.3-.531-.1a7.7,7.7,0,0,0-7.246-4.3c-4.106,0-6.811,2.464-6.811,5.6s1.642,4.782,8.212,7.874c7.633,3.526,9.661,6.28,9.661,11.014,0,5.121-4.348,9.178-10.338,9.178C1832.034,147.057,1828.363,145.028,1825.61,139.763Z" transform="translate(-1825.61 -111.02)" fill="#fff"/>
      <path id="Path_27293" data-name="Path 27293" d="M2078.6,141.34V120.52h2.705V141.1c0,8.116,3.43,11.98,10.483,11.98s10.531-3.865,10.531-12.028V120.52h2.7v20.772c0,9.323-4.541,14.347-13.236,14.347S2078.6,150.809,2078.6,141.34Z" transform="translate(-2054.157 -119.602)" fill="#fff"/>
      <path id="Path_27294" data-name="Path 27294" d="M2403.6,154.722v-34.2h8.744c7.536,0,11.4,3.43,11.4,9.806s-4.01,9.806-11.4,9.806H2406.3v14.589Zm2.705-17.052h5.266c6.569,0,9.419-2.415,9.419-7.343s-2.946-7.343-9.275-7.343h-5.41Z" transform="translate(-2347.757 -119.602)" fill="#fff"/>
      <path id="Path_27295" data-name="Path 27295" d="M2633.1,154.722v-34.2h8.744c7.536,0,11.4,3.43,11.4,9.806s-4.01,9.806-11.4,9.806h-6.039v14.589Zm2.705-17.052h5.265c6.57,0,9.42-2.415,9.42-7.343s-2.947-7.343-9.275-7.343h-5.41Z" transform="translate(-2555.086 -119.602)" fill="#fff"/>
      <path id="Path_27296" data-name="Path 27296" d="M2839.589,129.039c0-10.1,7.295-18.019,18.116-18.019s18.067,7.922,18.067,18.019a17.557,17.557,0,0,1-18.067,18.019C2847.077,147.057,2839.589,139.183,2839.589,129.039Zm33.332,0c0-8.7-6.231-15.458-15.217-15.458s-15.265,6.763-15.265,15.458,6.28,15.458,15.265,15.458S2872.922,137.637,2872.922,129.039Z" transform="translate(-2741.625 -111.02)" fill="#fff"/>
      <path id="Path_27297" data-name="Path 27297" d="M3269.422,154.19l-.242.531h-2.7L3255.8,139.6h-7v15.12h-2.705v-34.2h8.937c7.392,0,11.3,3.237,11.3,9.613,0,4.686-2.657,8.067-7.681,9.082Zm-20.627-17h5.99c6.087,0,8.841-2.512,8.841-7.053,0-4.976-3-7.149-9.228-7.149h-5.6Z" transform="translate(-3108.851 -119.602)" fill="#fff"/>
      <path id="Path_27298" data-name="Path 27298" d="M3462.7,123.032H3450.58V120.52h27v2.512H3465.41v31.69H3462.7Z" transform="translate(-3293.584 -119.602)" fill="#fff"/>
    </g>
  </g>
</svg>
